<svg width="50" height="50" viewBox="0 0 50 50" fill="none" xmlns="http://www.w3.org/2000/svg">
<circle cx="25" cy="25" r="25" fill="url(#paint0_linear_58_5350)"/>
<path d="M34.3915 36.5111C34.9773 37.0969 35.927 37.0969 36.5128 36.5111C37.0986 35.9253 37.0986 34.9755 36.5128 34.3898L16.1837 14.0607C15.5979 13.4749 14.6482 13.4749 14.0624 14.0607C13.4766 14.6464 13.4766 15.5962 14.0624 16.182L34.3915 36.5111Z" fill="white"/>
<path d="M16.1827 36.5111C15.5969 37.0969 14.6472 37.0969 14.0614 36.5111C13.4756 35.9253 13.4756 34.9755 14.0614 34.3898L34.3905 14.0607C34.9763 13.4749 35.926 13.4749 36.5118 14.0607C37.0976 14.6464 37.0976 15.5962 36.5118 16.182L16.1827 36.5111Z" fill="white"/>
<defs>
<linearGradient id="paint0_linear_58_5350" x1="50" y1="50" x2="-0.89116" y2="3.35835" gradientUnits="userSpaceOnUse">
<stop stop-color="#7D5E32"/>
<stop offset="0.5" stop-color="#C39A59"/>
<stop offset="1" stop-color="#FEF193"/>
</linearGradient>
</defs>
</svg>
