<svg width="50" height="50" viewBox="0 0 50 50" fill="none" xmlns="http://www.w3.org/2000/svg">
<path d="M35.75 15.4165C36.5784 15.4165 37.25 14.7449 37.25 13.9165C37.25 13.0881 36.5784 12.4165 35.75 12.4165H14.75C13.9216 12.4165 13.25 13.0881 13.25 13.9165C13.25 14.7449 13.9216 15.4165 14.75 15.4165H35.75Z" fill="white"/>
<path d="M35.75 19.4165C36.5784 19.4165 37.25 20.0881 37.25 20.9165C37.25 21.7449 36.5784 22.4165 35.75 22.4165H22.75C21.9216 22.4165 21.25 21.7449 21.25 20.9165C21.25 20.0881 21.9216 19.4165 22.75 19.4165H35.75Z" fill="white"/>
<path d="M35.75 29.4165C36.5784 29.4165 37.25 28.7449 37.25 27.9165C37.25 27.0881 36.5784 26.4165 35.75 26.4165H14.75C13.9216 26.4165 13.25 27.0881 13.25 27.9165C13.25 28.7449 13.9216 29.4165 14.75 29.4165H35.75Z" fill="white"/>
<path d="M35.75 36.4165C36.5784 36.4165 37.25 35.7449 37.25 34.9165C37.25 34.0881 36.5784 33.4165 35.75 33.4165H22.75C21.9216 33.4165 21.25 34.0881 21.25 34.9165C21.25 35.7449 21.9216 36.4165 22.75 36.4165H35.75Z" fill="white"/>
</svg>
