<svg width="60" height="60" viewBox="0 0 60 60" fill="none" xmlns="http://www.w3.org/2000/svg">
<path d="M30 0L31.275 24.4137L43.0165 2.97093L33.5726 25.5201L53.4549 11.2953L35.1626 27.5138L59.2478 23.3244L35.73 30L59.2478 36.6756L35.1626 32.4862L53.4549 48.7047L33.5726 34.4799L43.0165 57.0291L31.275 35.5863L30 60L28.725 35.5863L16.9835 57.0291L26.4274 34.4799L6.54506 48.7047L24.8374 32.4862L0.752163 36.6756L24.27 30L0.752163 23.3244L24.8374 27.5138L6.54506 11.2953L26.4274 25.5201L16.9835 2.97093L28.725 24.4137L30 0Z" fill="#7D5E32"/>
</svg>
