<svg width="50" height="50" viewBox="0 0 50 50" fill="none" xmlns="http://www.w3.org/2000/svg">
<g clip-path="url(#clip0_186_3377)">
<path d="M49.75 25C49.75 38.669 38.669 49.75 25 49.75C11.331 49.75 0.25 38.669 0.25 25C0.25 11.331 11.331 0.25 25 0.25C38.669 0.25 49.75 11.331 49.75 25Z" stroke="#242320" stroke-width="0.5"/>
<path d="M43 25C43 34.9411 34.9411 43 25 43C15.0589 43 7 34.9411 7 25C7 15.0589 15.0589 7 25 7C34.9411 7 43 15.0589 43 25Z" stroke="#242320" stroke-width="4"/>
<path d="M22 32C22.4091 32 22.5898 31.8206 22.8182 31.6078L25 29.5736L22.2785 28" fill="black"/>
<path d="M22.0516 27.899L28.7223 32.7957C29.4835 33.213 30.0329 32.9969 30.2225 32.0935L32.9379 19.3804C33.2159 18.273 32.513 17.7708 31.7848 18.0992L15.8404 24.2077C14.7521 24.6414 14.7584 25.2447 15.6421 25.5135L19.7337 26.7823L29.2064 20.8446C29.6536 20.5752 30.064 20.7201 29.7271 21.0171" fill="#242320"/>
</g>
<defs>
<clipPath id="clip0_186_3377">
<rect width="50" height="50" fill="white"/>
</clipPath>
</defs>
</svg>
