<svg width="674" height="674" viewBox="0 0 674 674" fill="none" xmlns="http://www.w3.org/2000/svg">
<rect x="0.215886" y="0.673325" width="364.93" height="546.926" rx="49.5" transform="matrix(0.889247 0.457427 -0.457475 0.889222 320.467 9.66822)" stroke="#595959"/>
<rect x="0.170421" y="0.686242" width="364.929" height="546.928" rx="49.5" transform="matrix(0.856703 0.515811 -0.515861 0.856672 342.464 7.9377)" stroke="#595959"/>
<rect x="0.125524" y="0.695854" width="364.928" height="546.931" rx="49.5" transform="matrix(0.821421 0.570322 -0.570373 0.821386 363.894 7.67331)" stroke="#595959"/>
<rect x="391.26" y="9.99792" width="364.926" height="546.933" rx="49.5" transform="rotate(39.6052 391.26 9.99792)" stroke="#595959"/>
<rect x="423.935" y="17.0119" width="364.922" height="546.938" rx="49.5" transform="rotate(46.9615 423.935 17.0119)" stroke="#595959"/>
<rect x="-0.140603" y="0.692965" width="364.919" height="546.944" rx="49.5" transform="matrix(0.552405 0.833576 -0.83361 0.552354 457.588 33.5871)" stroke="#595959"/>
</svg>
