<svg width="36" height="80" viewBox="0 0 36 80" fill="none" xmlns="http://www.w3.org/2000/svg">
<path fill-rule="evenodd" clip-rule="evenodd" d="M25.6242 2.01044C25.6242 0.900107 24.7241 0 23.6138 0C22.5034 0 21.6033 0.900107 21.6033 2.01044L21.6033 52.5894C20.9072 52.5985 20.0693 52.5975 19.1528 52.5889C17.261 52.5712 15.0867 52.5219 13.2447 52.4695L13.2447 2.06123C13.2447 0.950888 12.3446 0.0507813 11.2342 0.0507813C10.1239 0.0507813 9.22377 0.950888 9.22377 2.06123L9.22377 8.98652C7.59952 9.36131 5.68281 10.1709 4.01807 11.5015C1.82081 13.2578 0 15.9861 0 19.794C0 27.4729 4.87878 31.4916 9.22377 32.4668L9.22377 51.3533C8.47243 50.8202 7.66766 50.083 6.90285 49.1249C5.26206 47.0693 4.02089 44.2462 4.02089 40.9674C4.02089 39.8571 3.12078 38.957 2.01044 38.957C0.900107 38.957 0 39.8571 0 40.9674C0 45.2816 1.63326 48.9685 3.76031 51.6333C5.32094 53.5884 7.2788 55.1474 9.22377 55.9236L9.22377 61.7201V61.8768L9.24805 62.0316C9.44872 63.3112 10.0762 65.1299 11.3264 66.6746C12.6226 68.276 14.6373 69.6235 17.4499 69.6235V69.6248C20.2763 69.6248 22.2821 68.2509 23.562 66.6317C24.7958 65.0708 25.402 63.2429 25.5999 61.9809L25.6242 61.8261V61.6694V56.066L25.635 56.0638C26.5781 55.8703 27.9216 55.5214 29.295 54.7865C30.6826 54.044 32.1105 52.9015 33.1807 51.1384C34.2513 49.3744 34.8886 47.1133 34.8886 44.2528C34.8886 39.6643 33.3066 36.5094 31.1024 34.5089C29.3451 32.9139 27.3001 32.1509 25.6242 31.9041V14.1455C27.8397 14.2529 29.4036 15.5258 30.4817 17.3905C31.6463 19.4051 32.0799 21.8819 31.9612 23.5061C31.8802 24.6135 32.7123 25.5768 33.8197 25.6577C34.9271 25.7387 35.8904 24.9066 35.9714 23.7992C36.1461 21.4079 35.5491 18.1222 33.9627 15.3781C32.3787 12.6382 29.6633 10.2377 25.6242 10.1216V2.01044ZM27.3979 51.2413C26.8005 51.561 26.1896 51.7791 25.6242 51.9349V35.9993C26.4895 36.2186 27.5052 36.674 28.4001 37.4863C29.6703 38.6391 30.8678 40.6643 30.8678 44.2528C30.8678 46.5029 30.3721 48.0162 29.7434 49.052C29.1142 50.0886 28.2762 50.7714 27.3979 51.2413ZM19.1152 56.6096C20.0172 56.6181 20.8699 56.6196 21.6033 56.6106V61.4973C21.4657 62.2194 21.0865 63.2793 20.4075 64.1383C19.7294 64.9962 18.8087 65.604 17.4499 65.604V65.6026C16.0772 65.6026 15.1395 64.9944 14.4519 64.1449C13.7647 63.2959 13.381 62.2527 13.2447 61.547L13.2447 56.492C15.0808 56.5437 17.2311 56.592 19.1152 56.6096ZM6.52855 14.6424C7.38929 13.9544 8.35365 13.4723 9.22377 13.1677L9.22377 28.2875C6.74988 27.3763 4.02089 24.8114 4.02089 19.794C4.02089 17.4274 5.1004 15.7839 6.52855 14.6424ZM17.2377 79.9204C18.8434 78.3038 20.6563 75.1462 20.6563 73.2453C20.6563 71.3444 19.1257 69.8034 17.2377 69.8034C15.3496 69.8034 13.819 71.3444 13.819 73.2453C13.819 75.1462 15.6837 78.3559 17.2377 79.9204Z" fill="black"/>
</svg>
