<svg width="218" height="218" viewBox="0 0 218 218" fill="none" xmlns="http://www.w3.org/2000/svg">
<path fill-rule="evenodd" clip-rule="evenodd" d="M109.153 199.967C159.306 199.967 199.964 159.309 199.964 109.155C199.964 59.0012 159.306 18.3435 109.153 18.3435C58.9988 18.3435 18.341 59.0012 18.341 109.155C18.341 159.309 58.9988 199.967 109.153 199.967ZM109.153 202.96C160.96 202.96 202.958 160.962 202.958 109.155C202.958 57.348 160.96 15.3501 109.153 15.3501C57.3456 15.3501 15.3477 57.348 15.3477 109.155C15.3477 160.962 57.3456 202.96 109.153 202.96Z" fill="url(#paint0_linear_2028_2479)"/>
<path fill-rule="evenodd" clip-rule="evenodd" d="M109 209.777C164.657 209.777 209.777 164.658 209.777 109C209.777 53.3425 164.657 8.22306 109 8.22306C53.342 8.22306 8.22257 53.3425 8.22257 109C8.22257 164.658 53.342 209.777 109 209.777ZM109 217.759C169.066 217.759 217.759 169.066 217.759 109C217.759 48.934 169.066 0.240723 109 0.240723C48.9335 0.240723 0.240234 48.934 0.240234 109C0.240234 169.066 48.9335 217.759 109 217.759Z" fill="url(#paint1_linear_2028_2479)"/>
<path fill-rule="evenodd" clip-rule="evenodd" d="M114.72 79.2467C114.72 78.3775 114.015 77.6729 113.146 77.6729C112.277 77.6729 111.572 78.3775 111.572 79.2467V119.093C111.028 119.1 110.373 119.099 109.658 119.092C108.176 119.078 106.473 119.039 105.031 118.998V79.2857C105.031 78.4165 104.327 77.7119 103.457 77.7119C102.588 77.7119 101.884 78.4165 101.884 79.2857V84.7508C100.611 85.0464 99.1113 85.6845 97.8088 86.7322C96.0891 88.1157 94.668 90.2615 94.668 93.2532C94.668 99.2884 98.4789 102.456 101.884 103.225V118.115C101.298 117.695 100.671 117.116 100.074 116.364C98.789 114.744 97.8156 112.517 97.8156 109.929C97.8156 109.06 97.111 108.355 96.2418 108.355C95.3726 108.355 94.668 109.06 94.668 109.929C94.668 113.322 95.9441 116.222 97.6078 118.32C98.8281 119.859 100.36 121.087 101.884 121.699V126.277V126.399L101.902 126.519C102.059 127.524 102.549 128.954 103.526 130.169C104.539 131.429 106.116 132.492 108.322 132.492V132.494C110.538 132.494 112.109 131.41 113.109 130.136C114.073 128.909 114.546 127.471 114.701 126.48L114.72 126.36V126.238V121.812L114.733 121.81C115.471 121.657 116.523 121.382 117.599 120.803C118.685 120.218 119.802 119.318 120.638 117.931C121.475 116.544 121.973 114.766 121.973 112.517C121.973 108.908 120.737 106.427 119.013 104.852C117.637 103.595 116.034 102.993 114.72 102.799V88.793C116.449 88.877 117.674 89.8772 118.52 91.3502C119.433 92.9394 119.773 94.8939 119.68 96.1773C119.617 97.0442 120.269 97.798 121.136 97.861C122.003 97.9239 122.757 97.2722 122.82 96.4053C122.956 94.5258 122.49 91.9414 121.25 89.7824C120.012 87.6277 117.887 85.7338 114.72 85.6431V79.2467ZM116.106 118.032C115.639 118.283 115.162 118.455 114.72 118.578V106.006C115.396 106.178 116.19 106.536 116.89 107.176C117.886 108.085 118.825 109.684 118.825 112.517C118.825 114.292 118.437 115.487 117.943 116.306C117.449 117.124 116.793 117.662 116.106 118.032ZM109.628 122.24C110.332 122.246 110.999 122.248 111.572 122.241V126.104C111.464 126.675 111.166 127.514 110.633 128.192C110.101 128.87 109.381 129.347 108.322 129.347V129.345C107.252 129.345 106.519 128.868 105.979 128.197C105.44 127.526 105.138 126.701 105.031 126.142V122.147C106.469 122.188 108.153 122.226 109.628 122.24ZM99.7818 89.1848C100.453 88.6446 101.205 88.2657 101.884 88.026V99.9508C99.9515 99.2314 97.8156 97.2118 97.8156 93.2532C97.8156 91.3815 98.6643 90.0838 99.7818 89.1848ZM108.158 140.617C109.415 139.343 110.834 136.856 110.834 135.359C110.834 133.862 109.636 132.648 108.158 132.648C106.681 132.648 105.483 133.862 105.483 135.359C105.483 136.856 106.942 139.385 108.158 140.617Z" fill="url(#paint2_linear_2028_2479)"/>
<defs>
<linearGradient id="paint0_linear_2028_2479" x1="202.958" y1="202.96" x2="12.0038" y2="27.9513" gradientUnits="userSpaceOnUse">
<stop stop-color="#7D5E32"/>
<stop offset="0.5" stop-color="#C39A59"/>
<stop offset="1" stop-color="#FEF193"/>
</linearGradient>
<linearGradient id="paint1_linear_2028_2479" x1="217.759" y1="217.759" x2="-3.63664" y2="14.8508" gradientUnits="userSpaceOnUse">
<stop stop-color="#7D5E32"/>
<stop offset="0.5" stop-color="#C39A59"/>
<stop offset="1" stop-color="#FEF193"/>
</linearGradient>
<linearGradient id="paint2_linear_2028_2479" x1="122.843" y1="140.617" x2="77.679" y2="122.089" gradientUnits="userSpaceOnUse">
<stop stop-color="#7D5E32"/>
<stop offset="0.5" stop-color="#C39A59"/>
<stop offset="1" stop-color="#FEF193"/>
</linearGradient>
</defs>
</svg>
