<svg width="395" height="395" viewBox="0 0 395 395" fill="none" xmlns="http://www.w3.org/2000/svg">
<g clip-path="url(#clip0_2002_3037)">
<path d="M321.081 310.253C295.466 338.477 259.99 357.479 222.334 362.962C222.39 370.498 222.292 385.873 222.334 393.373C268.613 387.658 310.742 365.925 342.462 331.492C342.391 331.492 324.33 313.04 321.081 310.253ZM197.507 364.796C159.527 364.796 124.501 352.096 96.3685 330.645C91.1288 336.043 80.1499 346.811 74.8468 352.096C112.649 382.155 160.101 397.312 208.267 394.714V364.444C204.702 364.676 201.072 364.796 197.507 364.796ZM30.9594 213.939C23.476 213.995 8.242 213.896 0.786763 213.939C4.79571 263.19 27.5834 309.618 64.1563 342.923L85.3967 321.613C55.3647 294.377 35.1793 256.486 30.9594 213.939ZM30.256 199.827C29.3699 158.88 44.4491 117.864 71.5412 87.283C71.7522 87.0008 72.0335 86.648 72.3148 86.3657C72.3148 86.3657 53.4728 67.4909 51.0041 65.0565C17.4626 101.96 -0.556587 149.729 0.0131056 199.827H30.256ZM364.827 196.157V197.428C364.827 234.331 352.59 270.246 330.224 299.316C336.202 305.138 345.739 315.051 351.675 320.767C379.71 285.811 394.996 242.293 395 197.428V196.157H364.827ZM364.124 182.045C371.629 181.989 386.898 182.088 394.367 182.045C390.921 136.605 372.001 94.1979 340.492 61.1757C335.217 66.4536 324.478 77.2493 319.182 82.5555C345.134 110.003 360.748 144.719 364.124 182.045ZM330.435 51.3678C295.897 19.7648 251.26 1.55167 204.54 0V30.2703C243.434 31.8227 280.077 46.6403 309.054 72.677L330.435 51.3678ZM82.1614 76.205C111.701 47.9809 149.68 31.8932 190.473 30.1998C190.41 22.7204 190.516 7.50761 190.473 0.0705618C141.663 1.69345 96.0872 20.9564 60.8506 54.8959C66.0834 60.1808 76.8653 70.9271 82.1614 76.205Z" fill="url(#paint0_linear_2002_3037)"/>
<path d="M44.2544 197.428C44.2544 281.96 113.039 350.685 197.509 350.685C279.938 352.322 352.191 280.033 350.763 197.428C352.479 114.817 279.699 42.5276 197.509 44.1717C115.241 42.4218 42.6578 114.845 44.2544 197.428ZM215.303 339.396C188.19 338.711 188.253 298.965 215.303 298.259C242.353 298.972 242.409 338.718 215.303 339.396ZM302.937 122.987C330.05 123.721 329.973 163.418 302.937 164.124C275.894 163.411 275.831 123.714 302.937 122.987ZM167.406 189.314C217.673 205.705 257.784 164.293 229.51 115.014C206.251 76.827 147.334 94.1777 155.872 140.769C161.006 165.606 176.69 169.839 185.623 170.122C199.548 170.686 212.349 162.572 214.389 155.092C221 131.314 200.885 124.046 198.564 123.27C189.969 120.37 193.943 107.21 202.784 109.793C215.162 113.674 236.262 128.915 227.963 158.903C223.883 173.509 204.612 184.728 185.13 184.234C163.327 183.528 147.221 168.358 142.087 143.662C130.777 82.38 208.551 55.6518 241.466 107.605C254.548 128.844 256.307 153.328 246.952 173.015C259.612 170.545 273.819 171.603 288.66 176.26C297.465 179.111 293.4 192.313 284.51 189.737C231.993 171.462 193.233 217.334 221.281 263.685C244.554 301.865 303.45 284.521 294.919 237.93C289.785 213.093 274.03 208.859 265.168 208.577C251.383 208.154 238.513 216.127 236.403 223.606C229.791 247.385 249.906 254.653 252.227 255.429C260.822 258.336 256.848 271.587 247.937 268.906C235.629 265.025 214.529 249.784 222.828 219.796C226.908 205.19 246.108 193.759 265.661 194.465C287.464 195.171 303.57 210.341 308.704 235.037C314.964 265.096 297.521 286.687 277.547 294.66C253.775 303.424 227.709 297.836 210.802 273.492C208.762 279.984 205.597 286.123 201.307 291.626C189.561 306.797 171.767 314.77 151.16 314.77C142.227 314.77 132.733 313.288 123.027 310.184C122.143 309.916 121.321 309.473 120.61 308.882C119.899 308.29 119.314 307.562 118.888 306.74C118.462 305.919 118.204 305.019 118.13 304.096C118.055 303.173 118.166 302.244 118.455 301.364C119.58 297.624 123.519 295.578 127.247 296.777C179.715 314.89 218.482 269.259 190.475 222.76C184.427 212.952 176.479 207.025 168.039 204.132C141.278 195.904 110.55 213.149 116.767 248.514C123.435 286.941 165.901 283.427 175.354 262.838C181.965 239.059 161.85 231.791 159.529 231.015C150.906 228.016 154.817 214.998 163.749 217.538C176.128 221.419 197.227 236.66 188.858 266.648C184.849 281.254 165.578 292.544 146.096 291.979C124.293 291.274 108.187 276.103 103.052 251.407C94.9922 207.744 131.319 181.694 167.406 189.314ZM121.198 150.153C120.488 177.319 80.8272 177.319 80.1239 150.153C80.8554 123.086 120.474 123.093 121.198 150.153Z" fill="url(#paint1_linear_2002_3037)"/>
<path d="M203.769 205.753C194.963 207.164 195.631 205.725 200.885 213.02C201.659 210.551 202.643 208.081 203.769 205.753ZM100.661 156.643C109.136 156.509 109.207 143.871 100.661 143.73C92.1159 143.871 92.1933 156.516 100.661 156.643ZM215.303 312.369C206.828 312.553 206.772 325.134 215.303 325.282C223.834 325.134 223.778 312.546 215.303 312.369ZM302.937 150.01C311.412 149.876 311.476 137.239 302.937 137.098C294.406 137.281 294.483 149.841 302.937 150.01Z" fill="url(#paint2_linear_2002_3037)"/>
</g>
<defs>
<linearGradient id="paint0_linear_2002_3037" x1="395" y1="395" x2="-7.04036" y2="26.5312" gradientUnits="userSpaceOnUse">
<stop stop-color="#7D5E32"/>
<stop offset="0.5" stop-color="#C39A59"/>
<stop offset="1" stop-color="#FEF193"/>
</linearGradient>
<linearGradient id="paint1_linear_2002_3037" x1="350.793" y1="350.713" x2="38.7574" y2="64.7399" gradientUnits="userSpaceOnUse">
<stop stop-color="#7D5E32"/>
<stop offset="0.5" stop-color="#C39A59"/>
<stop offset="1" stop-color="#FEF193"/>
</linearGradient>
<linearGradient id="paint2_linear_2002_3037" x1="309.317" y1="325.282" x2="117.256" y2="124.14" gradientUnits="userSpaceOnUse">
<stop stop-color="#7D5E32"/>
<stop offset="0.5" stop-color="#C39A59"/>
<stop offset="1" stop-color="#FEF193"/>
</linearGradient>
<clipPath id="clip0_2002_3037">
<rect width="395" height="395" fill="white"/>
</clipPath>
</defs>
</svg>
