<svg width="2592" height="2592" viewBox="0 0 2592 2592" fill="none" xmlns="http://www.w3.org/2000/svg">
<path opacity="0.1" fill-rule="evenodd" clip-rule="evenodd" d="M1296 1986C1677.08 1986 1986 1677.08 1986 1296C1986 914.924 1677.08 606 1296 606C914.924 606 606 914.924 606 1296C606 1677.08 914.924 1986 1296 1986ZM1296 2086C1732.3 2086 2086 1732.3 2086 1296C2086 859.695 1732.3 506 1296 506C859.695 506 506 859.695 506 1296C506 1732.3 859.695 2086 1296 2086Z" fill="white"/>
<path fill-rule="evenodd" clip-rule="evenodd" d="M1296.5 2387C1898.77 2387 2387 1898.77 2387 1296.5C2387 694.234 1898.77 206 1296.5 206C694.234 206 206 694.234 206 1296.5C206 1898.77 694.234 2387 1296.5 2387ZM1296.5 2397C1904.29 2397 2397 1904.29 2397 1296.5C2397 688.711 1904.29 196 1296.5 196C688.711 196 196 688.711 196 1296.5C196 1904.29 688.711 2397 1296.5 2397Z" fill="white"/>
<path opacity="0.1" fill-rule="evenodd" clip-rule="evenodd" d="M1296 2412C1912.35 2412 2412 1912.35 2412 1296C2412 679.65 1912.35 180 1296 180C679.65 180 180 679.65 180 1296C180 1912.35 679.65 2412 1296 2412ZM1296 2592C2011.76 2592 2592 2011.76 2592 1296C2592 580.239 2011.76 0 1296 0C580.239 0 0 580.239 0 1296C0 2011.76 580.239 2592 1296 2592Z" fill="url(#paint0_linear_2001_2679)"/>
<defs>
<linearGradient id="paint0_linear_2001_2679" x1="2592" y1="2592" x2="-46.1977" y2="174.097" gradientUnits="userSpaceOnUse">
<stop stop-color="#7D5E32"/>
<stop offset="0.5" stop-color="#C39A59"/>
<stop offset="1" stop-color="#FEF193"/>
</linearGradient>
</defs>
</svg>
