<svg width="1044" height="1044" viewBox="0 0 1044 1044" fill="none" xmlns="http://www.w3.org/2000/svg">
<path fill-rule="evenodd" clip-rule="evenodd" d="M522.74 958.3C763.293 958.3 958.3 763.293 958.3 522.74C958.3 282.187 763.293 87.1801 522.74 87.1801C282.187 87.1801 87.1799 282.187 87.1799 522.74C87.1799 763.293 282.187 958.3 522.74 958.3ZM522.74 972.657C771.222 972.657 972.657 771.222 972.657 522.74C972.657 274.258 771.222 72.823 522.74 72.823C274.257 72.823 72.8228 274.258 72.8228 522.74C72.8228 771.222 274.257 972.657 522.74 972.657Z" fill="white"/>
<path fill-rule="evenodd" clip-rule="evenodd" d="M522 1005.36C788.951 1005.36 1005.36 788.951 1005.36 522C1005.36 255.049 788.951 38.6429 522 38.6429C255.049 38.6429 38.6429 255.049 38.6429 522C38.6429 788.951 255.049 1005.36 522 1005.36ZM522 1043.64C810.095 1043.64 1043.64 810.095 1043.64 522C1043.64 233.905 810.095 0.357178 522 0.357178C233.905 0.357178 0.357178 233.905 0.357178 522C0.357178 810.095 233.905 1043.64 522 1043.64Z" fill="white"/>
<path fill-rule="evenodd" clip-rule="evenodd" d="M562.053 324.612C562.053 318.854 557.385 314.186 551.627 314.186C545.869 314.186 541.201 318.854 541.201 324.612V588.61C537.55 588.659 533.148 588.654 528.333 588.609C518.408 588.516 506.995 588.257 497.344 587.982V324.872C497.344 319.114 492.677 314.446 486.919 314.446C481.161 314.446 476.493 319.114 476.493 324.872V361.059C468.01 363.009 457.989 367.23 449.286 374.175C437.818 383.328 428.31 397.549 428.31 417.404C428.31 457.475 453.816 478.415 476.493 483.482V582.221C472.527 579.427 468.274 575.55 464.237 570.5C455.653 559.762 449.161 545.018 449.161 527.894C449.161 522.136 444.493 517.469 438.735 517.469C432.977 517.469 428.31 522.136 428.31 527.894C428.31 550.396 436.842 569.625 447.951 583.521C456.109 593.726 466.34 601.854 476.493 605.894V636.209V637.023L476.619 637.827C477.667 644.497 480.943 653.978 487.469 662.029C494.234 670.374 504.742 677.388 519.406 677.388V656.536C512.196 656.536 507.271 653.344 503.667 648.898C500.067 644.456 498.058 639 497.344 635.31V608.842C506.965 609.113 518.253 609.367 528.138 609.459C532.877 609.504 537.355 609.511 541.201 609.464V635.055C540.481 638.83 538.496 644.373 534.938 648.868C531.384 653.357 526.549 656.548 519.41 656.548V677.399C534.146 677.399 544.607 670.248 551.287 661.81C557.727 653.675 560.893 644.146 561.926 637.566L562.053 636.762V635.949V606.642L562.195 606.613C567.119 605.604 574.132 603.786 581.299 599.956C588.54 596.087 595.993 590.134 601.579 580.945C607.169 571.75 610.498 559.961 610.498 545.04C610.498 521.105 602.233 504.658 590.73 494.233C581.526 485.893 570.811 481.919 562.053 480.648V387.852C573.732 388.378 581.961 395.058 587.62 404.83C593.713 415.354 595.981 428.291 595.36 436.776C594.94 442.518 599.254 447.515 604.997 447.935C610.74 448.355 615.736 444.041 616.156 438.298C617.069 425.828 613.95 408.692 605.665 394.382C597.379 380.072 583.176 367.554 562.053 366.987V324.612ZM571.473 581.565C568.297 583.262 565.05 584.411 562.053 585.228V501.872C566.617 503.008 571.995 505.396 576.728 509.684C583.384 515.716 589.647 526.302 589.647 545.04C589.647 556.789 587.055 564.696 583.762 570.113C580.466 575.534 576.075 579.106 571.473 581.565ZM462.293 390.473C466.828 386.854 471.913 384.324 476.493 382.733V461.821C463.506 457.082 449.161 443.667 449.161 417.404C449.161 405.037 454.812 396.443 462.293 390.473ZM518.324 731.218C526.717 722.782 536.192 706.303 536.192 696.383C536.192 686.463 528.192 678.422 518.324 678.422C508.456 678.422 500.456 686.463 500.456 696.383C500.456 706.303 510.202 723.054 518.324 731.218Z" fill="white"/>
</svg>
