<svg width="1133" height="370" viewBox="0 0 1133 370" fill="none" xmlns="http://www.w3.org/2000/svg">
<g opacity="0.1">
<path d="M1102.56 93.8997C1103.4 99.1425 1100.59 104.955 1094.19 111.255C1087.81 117.542 1077.94 124.219 1064.93 131.169C1038.9 145.068 1000.38 160.002 952.215 175.076C855.886 205.222 721.039 235.9 570.509 259.962C419.979 284.023 282.288 296.908 181.362 298.293C130.895 298.985 89.6431 296.801 60.581 291.709C46.0466 289.162 34.5921 285.893 26.5652 281.91C18.5205 277.918 14.038 273.272 13.2 268.029C12.3619 262.786 15.1727 256.974 21.5723 250.674C27.9577 244.387 37.8223 237.71 50.8385 230.76C76.8651 216.861 115.381 201.927 163.549 186.853C259.878 156.707 394.725 126.029 545.255 101.967C695.785 77.9058 833.476 65.0204 934.402 63.636C984.868 62.9437 1026.12 65.1276 1055.18 70.22C1069.72 72.7669 1081.17 76.0361 1089.2 80.019C1097.24 84.0107 1101.73 88.6569 1102.56 93.8997Z" stroke="#F9F9F9"/>
<path d="M1056.54 128.609C1057.38 133.279 1054.74 138.459 1048.64 144.077C1042.56 149.676 1033.15 155.607 1020.71 161.765C995.851 174.078 959.018 187.247 912.931 200.484C820.765 226.955 691.669 253.678 547.492 274.372C403.315 295.066 271.374 305.811 174.611 306.456C126.225 306.779 86.6557 304.577 58.7561 299.837C44.8027 297.467 33.7993 294.466 26.0788 290.847C18.3335 287.217 14.0325 283.032 13.2012 278.362C12.3698 273.692 15.0038 268.512 21.1027 262.894C27.1823 257.295 36.5959 251.364 49.0311 245.206C73.8952 232.893 110.728 219.724 156.815 206.487C248.981 180.015 378.077 153.293 522.254 132.599C666.432 111.905 798.372 101.16 895.136 100.515C943.521 100.192 983.09 102.394 1010.99 107.134C1024.94 109.504 1035.95 112.504 1043.67 116.123C1051.41 119.754 1055.71 123.939 1056.54 128.609Z" stroke="#F9F9F9"/>
<path d="M987.63 191.566C987.916 196.318 984.936 201.151 978.727 206.003C972.533 210.844 963.224 215.621 951.097 220.27C926.849 229.565 891.452 238.3 847.493 246.014C759.583 261.441 637.521 272.766 502.146 276.329C366.771 279.892 243.736 275.018 154.255 264.261C109.511 258.882 73.1786 252.034 47.8938 244.043C35.2482 240.046 25.3962 235.773 18.6417 231.273C11.8716 226.763 8.32206 222.101 8.03699 217.349C7.75191 212.598 10.7317 207.764 16.9402 202.912C23.1343 198.072 32.4433 193.294 44.5702 188.645C68.818 179.351 104.216 170.615 148.174 162.901C236.084 147.475 358.147 136.149 493.522 132.586C628.897 129.023 751.931 133.897 841.412 144.654C886.156 150.034 922.489 156.881 947.774 164.872C960.419 168.869 970.271 173.142 977.026 177.642C983.796 182.152 987.345 186.814 987.63 191.566Z" stroke="#F9F9F9"/>
<path d="M1063.38 183.87C1063.15 188.608 1059.44 193.077 1052.25 197.205C1045.08 201.32 1034.58 205.02 1021.1 208.273C994.122 214.777 955.288 219.466 907.415 222.173C811.675 227.588 679.866 225.072 534.685 213.34C389.503 201.608 258.458 182.882 163.951 162.093C116.694 151.698 78.594 140.792 52.4355 129.994C39.353 124.594 29.2865 119.233 22.5585 113.995C15.809 108.74 12.5409 103.707 12.7639 98.9685C12.9869 94.2304 16.7021 89.7617 23.8933 85.6333C31.0615 81.5182 41.5543 77.8183 55.0441 74.5655C82.0168 68.0616 120.851 63.3723 168.725 60.6648C264.464 55.2503 396.273 57.7658 541.454 69.4981C686.636 81.2304 817.682 99.9564 912.188 120.745C959.445 131.14 997.545 142.047 1023.7 152.844C1036.79 158.244 1046.85 163.605 1053.58 168.844C1060.33 174.098 1063.6 179.132 1063.38 183.87Z" stroke="#F9F9F9"/>
<path d="M1000.48 139.264C1001.3 143.121 998.891 147.426 993.152 152.11C987.444 156.769 978.579 161.685 966.851 166.773C943.402 176.946 908.619 187.762 865.067 198.576C777.971 220.202 655.881 241.806 519.443 258.257C383.005 274.708 258.071 282.889 166.377 282.82C120.527 282.786 83.0073 280.688 56.5228 276.536C43.2766 274.459 32.8216 271.872 25.4732 268.788C18.0841 265.687 14.0201 262.162 13.2026 258.304C12.3852 254.447 14.79 250.142 20.5293 245.458C26.2371 240.799 35.1023 235.883 46.8302 230.795C70.279 220.622 105.062 209.806 148.614 198.992C235.71 177.366 357.8 155.762 494.238 139.311C630.676 122.86 755.61 114.679 847.304 114.748C893.154 114.782 930.674 116.88 957.158 121.032C970.404 123.109 980.859 125.696 988.208 128.78C995.597 131.881 999.661 135.406 1000.48 139.264Z" stroke="#F9F9F9"/>
<path d="M1052.49 290.314C1051.43 295.526 1046.9 300.006 1039 303.708C1031.11 307.404 1019.98 310.269 1005.93 312.309C977.831 316.386 938.196 317.14 889.871 314.707C793.23 309.841 661.926 292.231 518.871 263.027C375.816 233.823 248.117 198.558 157.301 165.155C111.89 148.452 75.7221 132.223 51.4716 117.459C39.3436 110.076 30.2233 103.075 24.4172 96.5844C18.6008 90.0824 16.1894 84.1849 17.2534 78.9732C18.3173 73.7616 22.8473 69.2811 30.7469 65.5791C38.6323 61.8838 49.7669 59.018 63.8184 56.979C91.9152 52.9019 131.55 52.1472 179.875 54.5803C276.516 59.4461 407.819 77.0561 550.875 106.26C693.93 135.465 821.629 170.729 912.445 204.132C957.856 220.835 994.024 237.065 1018.27 251.828C1030.4 259.212 1039.52 266.213 1045.33 272.703C1051.15 279.205 1053.56 285.103 1052.49 290.314Z" stroke="#F9F9F9"/>
<path d="M1125.1 231.904C1124.67 236.624 1120.54 241.191 1112.7 245.526C1104.9 249.845 1093.56 253.846 1079.06 257.488C1050.06 264.771 1008.5 270.594 957.384 274.705C855.17 282.928 714.852 284.304 560.66 276.88C406.469 269.457 267.617 254.641 167.774 236.691C117.849 227.715 77.6975 217.959 50.2622 207.959C36.5411 202.957 26.0295 197.905 19.0696 192.876C12.0824 187.827 8.81112 182.903 9.23873 178.183C9.66634 173.463 13.7975 168.896 21.635 164.561C29.4418 160.242 40.7736 156.241 55.278 152.599C84.2791 145.316 125.843 139.493 176.953 135.382C279.168 127.159 419.486 125.783 573.677 133.207C727.869 140.63 866.72 155.446 966.563 173.396C1016.49 182.372 1056.64 192.128 1084.08 202.128C1097.8 207.13 1108.31 212.182 1115.27 217.211C1122.26 222.26 1125.53 227.184 1125.1 231.904Z" stroke="#F9F9F9"/>
<path d="M1052.49 275.115C1051.97 277.021 1050.61 278.813 1048.37 280.49C1046.13 282.169 1043.02 283.71 1039.08 285.105C1031.19 287.893 1020.05 290.056 1005.99 291.595C977.888 294.671 938.245 295.24 889.918 293.405C793.27 289.734 661.961 276.45 518.902 254.42C375.843 232.389 248.138 205.787 157.316 180.589C111.902 167.989 75.7275 155.745 51.4698 144.605C39.3374 139.033 30.2125 133.75 24.404 128.852C21.4998 126.403 19.4445 124.067 18.2515 121.858C17.0605 119.653 16.742 117.602 17.2577 115.697C17.7733 113.792 19.1319 111.999 21.3734 110.323C23.6185 108.644 26.7232 107.102 30.6676 105.708C38.5563 102.919 49.6965 100.756 63.7531 99.2178C91.8582 96.1414 131.5 95.5723 179.828 97.4078C276.476 101.078 407.785 114.363 550.844 136.393C693.903 158.423 821.608 185.025 912.43 210.223C957.844 222.823 994.018 235.068 1018.28 246.208C1030.41 251.779 1039.53 257.063 1045.34 261.961C1048.25 264.41 1050.3 266.746 1051.49 268.954C1052.69 271.159 1053 273.21 1052.49 275.115Z" stroke="#F9F9F9"/>
</g>
</svg>
