<svg width="523" height="523" viewBox="0 0 523 523" fill="none" xmlns="http://www.w3.org/2000/svg">
<path fill-rule="evenodd" clip-rule="evenodd" d="M261.5 429C354.008 429 429 354.008 429 261.5C429 168.992 354.008 94 261.5 94C168.992 94 94 168.992 94 261.5C94 354.008 168.992 429 261.5 429ZM261.5 459C370.576 459 459 370.576 459 261.5C459 152.424 370.576 64 261.5 64C152.424 64 64 152.424 64 261.5C64 370.576 152.424 459 261.5 459Z" fill="#242320"/>
<path fill-rule="evenodd" clip-rule="evenodd" d="M261.5 463C372.785 463 463 372.785 463 261.5C463 150.215 372.785 60 261.5 60C150.215 60 60 150.215 60 261.5C60 372.785 150.215 463 261.5 463ZM261.5 523C405.922 523 523 405.922 523 261.5C523 117.078 405.922 0 261.5 0C117.078 0 0 117.078 0 261.5C0 405.922 117.078 523 261.5 523Z" fill="#242320"/>
</svg>
