<svg width="129" height="184" viewBox="0 0 129 184" fill="none" xmlns="http://www.w3.org/2000/svg">
<g filter="url(#filter0_d_2008_2375)">
<mask id="path-1-inside-1_2008_2375" fill="white">
<path fill-rule="evenodd" clip-rule="evenodd" d="M73.8582 44.5C73.8582 43.1193 72.7389 42 71.3582 42C69.9775 42 68.8582 43.1193 68.8582 44.5V107.391C67.9936 107.402 66.9538 107.401 65.8167 107.39C63.4616 107.368 60.7544 107.307 58.4622 107.242V44.5625C58.4622 43.1818 57.3429 42.0625 55.9622 42.0625C54.5815 42.0625 53.4622 43.1818 53.4622 44.5625V53.1758C51.444 53.6426 49.064 54.6489 46.9965 56.3014C44.2642 58.4854 42 61.878 42 66.6132C42 76.1574 48.0611 81.1545 53.4622 82.3701V105.848C52.5301 105.186 51.5322 104.271 50.5837 103.083C48.5434 100.527 47 97.0161 47 92.9389C47 91.5582 45.8807 90.4389 44.5 90.4389C43.1193 90.4389 42 91.5582 42 92.9389C42 98.3036 44.031 102.888 46.676 106.202C48.6146 108.631 51.0461 110.568 53.4622 111.534V118.749V118.944L53.4924 119.136C53.7419 120.727 54.5221 122.989 56.0768 124.91C57.6887 126.901 60.194 128.577 63.6914 128.577V123.577C61.9845 123.577 60.8184 122.82 59.9633 121.764C59.1089 120.708 58.6317 119.411 58.4622 118.533V112.244C60.7471 112.308 63.4243 112.368 65.7699 112.39C66.8892 112.401 67.9474 112.402 68.8582 112.391V118.472C68.687 119.37 68.2155 120.688 67.3712 121.756C66.528 122.823 65.383 123.579 63.6934 123.579V128.579C67.208 128.579 69.7023 126.87 71.2938 124.857C72.828 122.916 73.5819 120.643 73.828 119.074L73.8582 118.881V118.686V111.715L73.8773 111.711C75.05 111.471 76.7207 111.037 78.4285 110.123C80.154 109.2 81.9296 107.779 83.2603 105.587C84.5917 103.393 85.3842 100.581 85.3842 97.0243C85.3842 91.3184 83.417 87.3953 80.6761 84.9076C78.4888 82.9225 75.9432 81.9737 73.8582 81.6678V59.5871C76.6153 59.7193 78.5614 61.3025 79.9027 63.6226C81.3508 66.1276 81.8901 69.2076 81.7424 71.2273C81.6418 72.6044 82.6765 73.8023 84.0536 73.9029C85.4306 74.0035 86.6285 72.9688 86.7291 71.5918C86.9465 68.6182 86.2041 64.5325 84.2314 61.1201C82.2611 57.712 78.8831 54.7263 73.8582 54.5835V44.5ZM76.0695 105.715C75.3245 106.113 74.5629 106.385 73.8582 106.579V86.7596C74.9354 87.0317 76.2009 87.5983 77.3157 88.6101C78.8952 90.0436 80.3842 92.562 80.3842 97.0243C80.3842 99.8223 79.7679 101.704 78.9861 102.992C78.2037 104.281 77.1616 105.13 76.0695 105.715ZM50.1183 60.2071C51.1861 59.3536 52.3822 58.7549 53.4622 58.376V77.1721C50.3879 76.0365 47 72.8472 47 66.6132C47 63.6703 48.3424 61.6266 50.1183 60.2071ZM63.4347 141.381C65.4314 139.371 67.6858 135.445 67.6858 133.081C67.6858 130.717 65.7825 128.801 63.4347 128.801C61.0869 128.801 59.1836 130.717 59.1836 133.081C59.1836 135.445 61.5024 139.436 63.4347 141.381Z"/>
</mask>
<path d="M68.8582 107.391L68.8712 108.391L69.8582 108.378V107.391H68.8582ZM65.8167 107.39L65.826 106.39H65.826L65.8167 107.39ZM58.4622 107.242H57.4622V108.214L58.4337 108.241L58.4622 107.242ZM53.4622 53.1758L53.6875 54.1501L54.4622 53.9709V53.1758H53.4622ZM46.9965 56.3014L47.6209 57.0826H47.6209L46.9965 56.3014ZM53.4622 82.3701H54.4622V81.5702L53.6817 81.3945L53.4622 82.3701ZM53.4622 105.848L52.8828 106.663L54.4622 107.786V105.848H53.4622ZM50.5837 103.083L51.3653 102.459L50.5837 103.083ZM46.676 106.202L45.8944 106.826H45.8944L46.676 106.202ZM53.4622 111.534H54.4622V110.857L53.8335 110.605L53.4622 111.534ZM53.4622 118.944H52.4622V119.022L52.4742 119.099L53.4622 118.944ZM53.4924 119.136L52.5044 119.291L52.5044 119.291L53.4924 119.136ZM56.0768 124.91L55.2995 125.539L56.0768 124.91ZM63.6914 128.577V129.577H64.6914V128.577H63.6914ZM63.6914 123.577H64.6914V122.577H63.6914V123.577ZM59.9633 121.764L60.7406 121.135L59.9633 121.764ZM58.4622 118.533H57.4622V118.629L57.4803 118.723L58.4622 118.533ZM58.4622 112.244L58.4903 111.244L57.4622 111.215V112.244H58.4622ZM65.7699 112.39L65.7792 111.39H65.7792L65.7699 112.39ZM68.8582 112.391H69.8582V111.379L68.846 111.391L68.8582 112.391ZM68.8582 118.472L69.8405 118.66L69.8582 118.567V118.472H68.8582ZM67.3712 121.756L68.1557 122.377L68.1557 122.377L67.3712 121.756ZM63.6934 123.579V122.579H62.6934V123.579H63.6934ZM63.6934 128.579H62.6934V129.579H63.6934V128.579ZM71.2938 124.857L70.5093 124.237L71.2938 124.857ZM73.828 119.074L72.8401 118.919L73.828 119.074ZM73.8582 118.881L74.8461 119.036L74.8582 118.959V118.881H73.8582ZM73.8582 111.715L73.6576 110.736L72.8582 110.899V111.715H73.8582ZM73.8773 111.711L74.0779 112.691L74.0783 112.691L73.8773 111.711ZM78.4285 110.123L77.9567 109.241H77.9567L78.4285 110.123ZM83.2603 105.587L84.1152 106.105H84.1152L83.2603 105.587ZM80.6761 84.9076L80.004 85.6481L80.6761 84.9076ZM73.8582 81.6678H72.8582V82.5317L73.713 82.6572L73.8582 81.6678ZM73.8582 59.5871L73.9061 58.5882L72.8582 58.538V59.5871H73.8582ZM79.9027 63.6226L79.0369 64.1231L79.9027 63.6226ZM81.7424 71.2273L80.7451 71.1544L81.7424 71.2273ZM84.0536 73.9029L83.9807 74.9002H83.9807L84.0536 73.9029ZM86.7291 71.5918L85.7318 71.5189V71.5189L86.7291 71.5918ZM84.2314 61.1201L85.0971 60.6196L84.2314 61.1201ZM73.8582 54.5835H72.8582V55.5555L73.8298 55.5831L73.8582 54.5835ZM73.8582 106.579H72.8582V107.891L74.1235 107.543L73.8582 106.579ZM76.0695 105.715L75.5977 104.833L75.5977 104.833L76.0695 105.715ZM73.8582 86.7596L74.1031 85.79L72.8582 85.4755V86.7596H73.8582ZM77.3157 88.6101L77.9878 87.8696L77.3157 88.6101ZM78.9861 102.992L78.1313 102.473L78.9861 102.992ZM53.4622 58.376H54.4622V56.9655L53.1311 57.4324L53.4622 58.376ZM50.1183 60.2071L49.4939 59.426L50.1183 60.2071ZM53.4622 77.1721L53.1157 78.1102L54.4622 78.6076V77.1721H53.4622ZM63.4347 141.381L62.7252 142.086L63.4347 142.8L64.1442 142.086L63.4347 141.381ZM71.3582 43C72.1866 43 72.8582 43.6716 72.8582 44.5H74.8582C74.8582 42.567 73.2912 41 71.3582 41V43ZM69.8582 44.5C69.8582 43.6716 70.5298 43 71.3582 43V41C69.4252 41 67.8582 42.567 67.8582 44.5H69.8582ZM69.8582 107.391V44.5H67.8582V107.391H69.8582ZM65.8073 108.39C66.9485 108.401 67.9964 108.402 68.8712 108.391L68.8452 106.391C67.9908 106.402 66.9591 106.401 65.826 106.39L65.8073 108.39ZM58.4337 108.241C60.7294 108.306 63.4435 108.368 65.8073 108.39L65.826 106.39C63.4797 106.368 60.7794 106.307 58.4906 106.242L58.4337 108.241ZM57.4622 44.5625V107.242H59.4622V44.5625H57.4622ZM55.9622 43.0625C56.7906 43.0625 57.4622 43.7341 57.4622 44.5625H59.4622C59.4622 42.6295 57.8952 41.0625 55.9622 41.0625V43.0625ZM54.4622 44.5625C54.4622 43.7341 55.1337 43.0625 55.9622 43.0625V41.0625C54.0292 41.0625 52.4622 42.6295 52.4622 44.5625H54.4622ZM54.4622 53.1758V44.5625H52.4622V53.1758H54.4622ZM47.6209 57.0826C49.5572 55.5349 51.7962 54.5876 53.6875 54.1501L53.2368 52.2015C51.0919 52.6977 48.5708 53.7629 46.3721 55.5203L47.6209 57.0826ZM43 66.6132C43 62.2373 45.0791 59.1142 47.6209 57.0826L46.3721 55.5203C43.4493 57.8565 41 61.5188 41 66.6132H43ZM53.6817 81.3945C48.6921 80.2715 43 75.6453 43 66.6132H41C41 76.6696 47.4301 82.0375 53.2426 83.3457L53.6817 81.3945ZM54.4622 105.848V82.3701H52.4622V105.848H54.4622ZM49.8022 103.707C50.8071 104.966 51.8726 105.945 52.8828 106.663L54.0415 105.033C53.1875 104.426 52.2572 103.576 51.3653 102.459L49.8022 103.707ZM46 92.9389C46 97.2734 47.6408 100.999 49.8022 103.707L51.3653 102.459C49.446 100.054 48 96.7588 48 92.9389H46ZM44.5 91.4389C45.3284 91.4389 46 92.1105 46 92.9389H48C48 91.0059 46.433 89.4389 44.5 89.4389V91.4389ZM43 92.9389C43 92.1105 43.6716 91.4389 44.5 91.4389V89.4389C42.567 89.4389 41 91.0059 41 92.9389H43ZM47.4575 105.578C44.9334 102.416 43 98.0459 43 92.9389H41C41 98.5612 43.1286 103.361 45.8944 106.826L47.4575 105.578ZM53.8335 110.605C51.6133 109.718 49.3144 107.904 47.4575 105.578L45.8944 106.826C47.9148 109.357 50.4789 111.418 53.0908 112.462L53.8335 110.605ZM54.4622 118.749V111.534H52.4622V118.749H54.4622ZM54.4622 118.944V118.749H52.4622V118.944H54.4622ZM54.4803 118.981L54.4501 118.789L52.4742 119.099L52.5044 119.291L54.4803 118.981ZM56.8541 124.28C55.428 122.518 54.7073 120.429 54.4803 118.981L52.5044 119.291C52.7765 121.026 53.6163 123.459 55.2995 125.539L56.8541 124.28ZM63.6914 127.577C60.5531 127.577 58.3154 126.086 56.8541 124.28L55.2995 125.539C57.062 127.716 59.8348 129.577 63.6914 129.577V127.577ZM62.6914 123.577V128.577H64.6914V123.577H62.6914ZM59.186 122.393C60.1941 123.638 61.6286 124.577 63.6914 124.577V122.577C62.3404 122.577 61.4427 122.002 60.7406 121.135L59.186 122.393ZM57.4803 118.723C57.6745 119.728 58.2089 121.186 59.186 122.393L60.7406 121.135C60.0089 120.231 59.5889 119.094 59.444 118.344L57.4803 118.723ZM57.4622 112.244V118.533H59.4622V112.244H57.4622ZM65.7792 111.39C63.4422 111.368 60.7719 111.308 58.4903 111.244L58.434 113.243C60.7224 113.308 63.4064 113.368 65.7605 113.39L65.7792 111.39ZM68.846 111.391C67.945 111.402 66.8946 111.401 65.7792 111.39L65.7605 113.39C66.8838 113.401 67.9498 113.403 68.8704 113.391L68.846 111.391ZM69.8582 118.472V112.391H67.8582V118.472H69.8582ZM68.1557 122.377C69.121 121.155 69.6463 119.678 69.8405 118.66L67.8759 118.285C67.7277 119.062 67.31 120.221 66.5866 121.136L68.1557 122.377ZM63.6934 124.579C65.7456 124.579 67.1611 123.635 68.1557 122.377L66.5867 121.136C65.8949 122.012 65.0204 122.579 63.6934 122.579V124.579ZM64.6934 128.579V123.579H62.6934V128.579H64.6934ZM70.5093 124.237C69.0666 126.062 66.8419 127.579 63.6934 127.579V129.579C67.5742 129.579 70.338 127.679 72.0783 125.477L70.5093 124.237ZM72.8401 118.919C72.6151 120.353 71.9167 122.456 70.5093 124.237L72.0783 125.477C73.7393 123.376 74.5487 120.933 74.8159 119.229L72.8401 118.919ZM72.8703 118.726L72.8401 118.919L74.8159 119.229L74.8461 119.036L72.8703 118.726ZM72.8582 118.686V118.881H74.8582V118.686H72.8582ZM72.8582 111.715V118.686H74.8582V111.715H72.8582ZM73.6767 110.732L73.6576 110.736L74.0588 112.695L74.0779 112.691L73.6767 110.732ZM77.9567 109.241C76.3684 110.091 74.8024 110.501 73.6763 110.732L74.0783 112.691C75.2977 112.441 77.0731 111.982 78.9003 111.005L77.9567 109.241ZM82.4055 105.068C81.1844 107.079 79.5557 108.386 77.9567 109.241L78.9003 111.005C80.7524 110.014 82.6747 108.479 84.1152 106.105L82.4055 105.068ZM84.3842 97.0243C84.3842 100.43 83.6269 103.055 82.4055 105.068L84.1152 106.105C85.5566 103.731 86.3842 100.733 86.3842 97.0243H84.3842ZM80.004 85.6481C82.5124 87.9247 84.3842 91.5668 84.3842 97.0243H86.3842C86.3842 91.0701 84.3216 86.8658 81.3481 84.1671L80.004 85.6481ZM73.713 82.6572C75.6311 82.9386 77.9844 83.8151 80.004 85.6481L81.3481 84.1671C78.9932 82.0298 76.2553 81.0088 74.0034 80.6784L73.713 82.6572ZM72.8582 59.5871V81.6678H74.8582V59.5871H72.8582ZM80.7684 63.1221C79.3098 60.599 77.0963 58.7412 73.9061 58.5882L73.8103 60.5859C76.1344 60.6974 77.813 62.006 79.0369 64.1231L80.7684 63.1221ZM82.7398 71.3002C82.9013 69.0897 82.3215 65.8086 80.7684 63.1221L79.0369 64.1231C80.3802 66.4467 80.8788 69.3255 80.7451 71.1544L82.7398 71.3002ZM84.1264 72.9056C83.3002 72.8452 82.6794 72.1264 82.7398 71.3002L80.7451 71.1544C80.6042 73.0823 82.0528 74.7593 83.9807 74.9002L84.1264 72.9056ZM85.7318 71.5189C85.6714 72.3451 84.9527 72.966 84.1264 72.9056L83.9807 74.9002C85.9085 75.0411 87.5856 73.5925 87.7265 71.6647L85.7318 71.5189ZM83.3656 61.6206C85.2334 64.8515 85.9352 68.736 85.7318 71.5189L87.7265 71.6647C87.9577 68.5004 87.1747 64.2135 85.0971 60.6196L83.3656 61.6206ZM73.8298 55.5831C78.4103 55.7132 81.5138 58.4174 83.3656 61.6206L85.0971 60.6196C83.0084 57.0067 79.3559 53.7393 73.8866 53.5839L73.8298 55.5831ZM72.8582 44.5V54.5835H74.8582V44.5H72.8582ZM74.1235 107.543C74.8791 107.335 75.7142 107.039 76.5413 106.596L75.5977 104.833C74.9348 105.188 74.2466 105.435 73.5929 105.614L74.1235 107.543ZM72.8582 86.7596V106.579H74.8582V86.7596H72.8582ZM77.9878 87.8696C76.7327 86.7305 75.3128 86.0956 74.1031 85.79L73.6133 87.7291C74.5581 87.9678 75.6691 88.466 76.6437 89.3506L77.9878 87.8696ZM81.3842 97.0243C81.3842 92.3128 79.7992 89.5136 77.9878 87.8696L76.6437 89.3506C77.9912 90.5736 79.3842 92.8113 79.3842 97.0243H81.3842ZM79.8409 103.511C80.7326 102.042 81.3842 99.9743 81.3842 97.0243H79.3842C79.3842 99.6704 78.8032 101.366 78.1313 102.473L79.8409 103.511ZM76.5413 106.596C77.7603 105.944 78.949 104.981 79.8409 103.511L78.1313 102.473C77.4584 103.582 76.5628 104.316 75.5977 104.833L76.5413 106.596ZM53.1311 57.4324C51.9641 57.8418 50.6643 58.4905 49.4939 59.426L50.7427 60.9883C51.7079 60.2167 52.8002 59.668 53.7932 59.3196L53.1311 57.4324ZM54.4622 77.1721V58.376H52.4622V77.1721H54.4622ZM46 66.6132C46 73.2871 49.669 76.837 53.1157 78.1102L53.8087 76.2341C51.1068 75.236 48 72.4072 48 66.6132H46ZM49.4939 59.426C47.5256 60.9993 46 63.3131 46 66.6132H48C48 64.0276 49.1592 62.2539 50.7427 60.9883L49.4939 59.426ZM66.6858 133.081C66.6858 134.011 66.2185 135.405 65.4262 136.894C64.6494 138.354 63.6416 139.754 62.7252 140.677L64.1442 142.086C65.2245 140.998 66.3422 139.43 67.1918 137.833C68.0259 136.266 68.6858 134.514 68.6858 133.081H66.6858ZM63.4347 129.801C65.2238 129.801 66.6858 131.263 66.6858 133.081H68.6858C68.6858 130.171 66.3411 127.801 63.4347 127.801V129.801ZM60.1836 133.081C60.1836 131.263 61.6455 129.801 63.4347 129.801V127.801C60.5282 127.801 58.1836 130.171 58.1836 133.081H60.1836ZM64.1442 140.677C63.261 139.787 62.2527 138.388 61.4664 136.917C60.6638 135.415 60.1836 134.007 60.1836 133.081H58.1836C58.1836 134.518 58.8628 136.288 59.7026 137.859C60.5588 139.461 61.676 141.03 62.7252 142.086L64.1442 140.677Z" fill="url(#paint0_linear_2008_2375)" mask="url(#path-1-inside-1_2008_2375)"/>
</g>
<defs>
<filter id="filter0_d_2008_2375" x="22" y="22" width="104.766" height="159.381" filterUnits="userSpaceOnUse" color-interpolation-filters="sRGB">
<feFlood flood-opacity="0" result="BackgroundImageFix"/>
<feColorMatrix in="SourceAlpha" type="matrix" values="0 0 0 0 0 0 0 0 0 0 0 0 0 0 0 0 0 0 127 0" result="hardAlpha"/>
<feOffset dx="10" dy="10"/>
<feGaussianBlur stdDeviation="15"/>
<feComposite in2="hardAlpha" operator="out"/>
<feColorMatrix type="matrix" values="0 0 0 0 0.996078 0 0 0 0 0.945098 0 0 0 0 0.576471 0 0 0 0.3 0"/>
<feBlend mode="normal" in2="BackgroundImageFix" result="effect1_dropShadow_2008_2375"/>
<feBlend mode="normal" in="SourceGraphic" in2="effect1_dropShadow_2008_2375" result="shape"/>
</filter>
<linearGradient id="paint0_linear_2008_2375" x1="86.7657" y1="141.381" x2="15.1377" y2="111.811" gradientUnits="userSpaceOnUse">
<stop stop-color="#7D5E32"/>
<stop offset="0.5" stop-color="#C39A59"/>
<stop offset="1" stop-color="#FEF193"/>
</linearGradient>
</defs>
</svg>
