<svg width="180" height="180" viewBox="0 0 180 180" fill="none" xmlns="http://www.w3.org/2000/svg">
<rect width="180" height="180" rx="31.656" fill="black"/>
<circle cx="90.2599" cy="89.507" r="50.6495" fill="black" stroke="url(#paint0_linear_11_2520)" stroke-width="4.22079"/>
<path fill-rule="evenodd" clip-rule="evenodd" d="M97.3715 58.0144C97.3715 57.0378 96.5798 56.2461 95.6033 56.2461C94.6267 56.2461 93.835 57.0378 93.835 58.0144V101.353C93.2317 101.361 92.5082 101.36 91.7177 101.353C90.0715 101.337 88.18 101.295 86.5759 101.25V58.0576C86.5759 57.081 85.7842 56.2893 84.8076 56.2893C83.831 56.2893 83.0393 57.081 83.0393 58.0576V63.9578C81.629 64.2812 79.9671 64.9741 78.5209 66.111C76.6022 67.6195 75 69.9731 75 73.2671C75 79.8847 79.2622 83.3308 83.0393 84.1759V100.281C82.39 99.8253 81.6964 99.1984 81.0376 98.3866C79.6113 96.629 78.5365 94.2206 78.5365 91.4278C78.5365 90.4512 77.7448 89.6595 76.7683 89.6595C75.7917 89.6595 75 90.4512 75 91.4278C75 95.148 76.432 98.3236 78.2915 100.615C79.6506 102.29 81.3513 103.623 83.0393 104.292V109.23V109.37L83.0614 109.508C83.2381 110.617 83.7896 112.186 84.8854 113.518C86.0225 114.9 87.7817 116.052 90.228 116.052V116.054C92.6863 116.054 94.438 114.879 95.561 113.481C96.6425 112.135 97.1752 110.558 97.3495 109.465L97.3715 109.326V109.186V104.42C98.193 104.254 99.3627 103.955 100.559 103.326C101.769 102.689 103.019 101.707 103.957 100.186C104.897 98.6632 105.456 96.7115 105.456 94.2459C105.456 90.2893 104.068 87.568 102.138 85.8457C100.607 84.4786 98.8284 83.8246 97.3715 83.6114V68.4667C99.304 68.5628 100.659 69.6563 101.589 71.2388C102.599 72.9569 102.973 75.0678 102.871 76.4463C102.799 77.4202 103.529 78.2684 104.503 78.3408C105.477 78.4131 106.325 77.6823 106.398 76.7084C106.551 74.6425 106.027 71.8105 104.638 69.4468C103.25 67.0852 100.88 65.0314 97.3715 64.9274V58.0144ZM98.9119 100.196C98.3934 100.469 97.8631 100.656 97.3715 100.789V87.2121C98.1257 87.4012 99.0075 87.7916 99.783 88.4839C100.884 89.4664 101.919 91.1885 101.919 94.2459C101.919 96.1641 101.49 97.4499 100.948 98.3287C100.404 99.2096 99.678 99.7929 98.9119 100.196ZM91.6852 104.889C92.4637 104.896 93.2 104.897 93.835 104.89V109.032C93.7158 109.641 93.3892 110.538 92.8043 111.266C92.2199 111.993 91.4195 112.517 90.228 112.517V112.516C89.0245 112.516 88.2091 111.991 87.6162 111.271C87.0242 110.551 86.6939 109.669 86.5759 109.074V104.788C88.1749 104.833 90.0456 104.874 91.6852 104.889ZM80.7066 68.8912C81.4505 68.3064 82.2844 67.8947 83.0393 67.633V80.5035C80.8856 79.7174 78.5365 77.5214 78.5365 73.2671C78.5365 71.2649 79.4636 69.8684 80.7066 68.8912ZM90.0445 124.845C91.4448 123.459 93.0258 120.75 93.0258 119.12C93.0258 117.489 91.691 116.167 90.0445 116.167C88.398 116.167 87.0632 117.489 87.0632 119.12C87.0632 120.75 88.6894 123.503 90.0445 124.845Z" fill="url(#paint1_linear_11_2520)"/>
<defs>
<linearGradient id="paint0_linear_11_2520" x1="143.02" y1="142.267" x2="35.6193" y2="43.8345" gradientUnits="userSpaceOnUse">
<stop stop-color="#7D5E32"/>
<stop offset="0.5" stop-color="#C39A59"/>
<stop offset="1" stop-color="#FEF193"/>
</linearGradient>
<linearGradient id="paint1_linear_11_2520" x1="106.424" y1="124.845" x2="56.3928" y2="103.841" gradientUnits="userSpaceOnUse">
<stop stop-color="#7D5E32"/>
<stop offset="0.5" stop-color="#C39A59"/>
<stop offset="1" stop-color="#FEF193"/>
</linearGradient>
</defs>
</svg>
