<svg width="45" height="100" viewBox="0 0 45 100" fill="none" xmlns="http://www.w3.org/2000/svg">
<path fill-rule="evenodd" clip-rule="evenodd" d="M31.9723 2.50684C31.9723 1.12612 30.853 0.00683594 29.4723 0.00683594C28.0916 0.00683594 26.9723 1.12612 26.9723 2.50684V65.8037C26.1084 65.815 25.0694 65.8137 23.9331 65.803C21.5789 65.7809 18.8729 65.719 16.5815 65.6534V2.56934C16.5815 1.18862 15.4622 0.0693359 14.0815 0.0693359C12.7008 0.0693359 11.5815 1.18862 11.5815 2.56934V11.2505C9.56114 11.7203 7.17932 12.7337 5.11133 14.3973C2.37955 16.5949 0.12207 20.0036 0.12207 24.7559C0.12207 34.3412 6.17373 39.3728 11.5815 40.5955V64.2482C10.6519 63.5822 9.65639 62.663 8.70956 61.4692C6.6683 58.8953 5.12207 55.3577 5.12207 51.2468C5.12207 49.8661 4.00278 48.7468 2.62207 48.7468C1.24136 48.7468 0.12207 49.8661 0.12207 51.2468C0.12207 56.6361 2.14924 61.2438 4.79202 64.5761C6.72966 67.0193 9.16221 68.9701 11.5815 69.9425V77.2145V77.4081L11.6113 77.5994C11.86 79.1955 12.6382 81.4672 14.1906 83.3976C15.7996 85.3983 18.3053 87.0876 21.8086 87.0876V82.0876C20.1089 82.0876 18.9443 81.3301 18.087 80.2641C17.2301 79.1987 16.7513 77.8883 16.5815 77.0008V70.6554C18.8655 70.7202 21.5414 70.7807 23.886 70.8028C25.0044 70.8133 26.0619 70.8153 26.9723 70.8041V76.9396C26.8008 77.8473 26.3278 79.1786 25.481 80.2569C24.6355 81.3335 23.4918 82.0904 21.8096 82.0904V87.0904C25.3302 87.0904 27.8248 85.3678 29.4133 83.3451C30.9451 81.3945 31.6972 79.1114 31.9425 77.5369L31.9723 77.3456V77.152V70.1241L31.9946 70.1195C33.1679 69.8772 34.8393 69.4404 36.5475 68.5204C38.2738 67.5907 40.0475 66.1615 41.3761 63.9585C42.7048 61.7553 43.4958 58.9313 43.4958 55.3575C43.4958 49.6255 41.5329 45.684 38.7946 43.1827C36.6075 41.1848 34.0601 40.2291 31.9723 39.9212V17.6721C34.7214 17.8048 36.6677 19.3938 38.0121 21.7342C39.4621 24.2587 40.0027 27.3635 39.8546 29.4021C39.7546 30.7792 40.7899 31.9766 42.167 32.0766C43.5441 32.1766 44.7415 31.1413 44.8415 29.7642C45.0583 26.7787 44.3176 22.6734 42.3477 19.2439C40.3814 15.8205 37.0045 12.8117 31.9723 12.6684V2.50684ZM34.1767 64.1182C33.4341 64.5182 32.6749 64.7909 31.9723 64.9857V45.0143C33.0465 45.288 34.309 45.8573 35.4225 46.8743C37.0034 48.3185 38.4958 50.8584 38.4958 55.3575C38.4958 58.178 37.8784 60.0765 37.0945 61.3763C36.3104 62.6764 35.2673 63.5309 34.1767 64.1182ZM8.24538 18.2932C9.31121 17.4358 10.5042 16.8343 11.5815 16.4534V35.3939C8.51298 34.2504 5.12207 31.0422 5.12207 24.7559C5.12207 21.7827 6.47018 19.7213 8.24538 18.2932ZM21.5517 99.9933C23.5478 97.9706 25.8016 94.0198 25.8016 91.6414C25.8016 89.263 23.8988 87.335 21.5517 87.335C19.2045 87.335 17.3018 89.263 17.3018 91.6414C17.3018 94.0198 19.6199 98.0358 21.5517 99.9933Z" fill="url(#paint0_linear_2001_2207)"/>
<defs>
<linearGradient id="paint0_linear_2001_2207" x1="44.878" y1="99.9933" x2="-26.865" y2="70.5613" gradientUnits="userSpaceOnUse">
<stop stop-color="#7D5E32"/>
<stop offset="0.5" stop-color="#C39A59"/>
<stop offset="1" stop-color="#FEF193"/>
</linearGradient>
</defs>
</svg>
